Coordinates
version=1
nRows=7
nColumns=42
inDegrees=yes

Units are S.I. units (second, meters, Newtons, ...)
If the header above contains a line with 'inDegrees', this indicates whether rotational values are in degrees (yes) or radians (no).

endheader
time	pelvis_tilt	pelvis_list	pelvis_rotation	pelvis_tx	pelvis_ty	pelvis_tz	hip_flexion_r	hip_adduction_r	hip_rotation_r	knee_angle_r	knee_adduction_r	knee_angle_r_beta	ankle_angle_r	subtalar_angle_r	mtp_angle_r	hip_flexion_l	hip_adduction_l	hip_rotation_l	knee_angle_l	knee_adduction_l	knee_angle_l_beta	ankle_angle_l	subtalar_angle_l	mtp_angle_l	lumbar_extension	lumbar_bending	lumbar_rotation	arm_flex_r	arm_add_r	arm_rot_r	elbow_flex_r	pro_sup_r	wrist_flex_r	wrist_dev_r	arm_flex_l	arm_add_l	arm_rot_l	elbow_flex_l	pro_sup_l	wrist_flex_l	wrist_dev_l
      0.00000000	     13.00406093	     -1.15539170	      6.53870036	     -2.59624273	      0.87883714	      0.17305344	    -27.47719699	      6.03624604	    -20.39887220	      1.49661159	      5.98146174	      0.02612080	     20.27332111	     36.19744351	     -9.50974941	     12.76642844	     -0.79227360	    -13.44865836	     26.64700579	     -7.65938712	      0.46507799	     19.55994468	     18.81300977	     -9.50974941	    -37.12864130	      4.74090519	      5.91489463	      7.07599544	    -19.94808147	      5.72037724	     47.83516453	     90.00000001	      0.00000000	      0.00000000	      5.37134399	    -13.88352928	      6.76521732	     43.70306101	     90.00000001	      0.00000000	      0.00000000
      0.01000000	     12.78133789	     -1.51841621	      6.70731908	     -2.58490219	      0.87633269	      0.17223339	    -28.14888674	      6.54157011	    -21.05743260	      1.37921500	      6.07859733	      0.02407184	     20.42380488	     36.41744382	     -9.45431021	     13.77628423	     -0.86379692	    -12.65925825	     24.30504544	     -6.78712288	      0.42420307	     18.44178833	     19.76401097	     -9.45431021	    -36.80262864	      5.12503295	      6.05827951	      7.52884758	    -20.19634338	      5.17824906	     48.09652880	     90.00000001	      0.00000000	      0.00000000	      4.63006836	    -13.70488084	      6.35847057	     43.27647293	     90.00000001	      0.00000000	      0.00000000
      0.02000000	     12.51819604	     -1.83432916	      6.89623192	     -2.57349710	      0.87378505	      0.17125885	    -28.70887378	      6.97885239	    -21.83642839	      1.42129415	      6.14066290	      0.02480626	     20.61765971	     36.82652412	     -9.39485324	     14.71815058	     -0.83274570	    -11.84851692	     21.95034530	     -5.99398121	      0.38310580	     17.37686817	     20.71541446	     -9.39485324	    -36.44744591	      5.47859164	      6.14468503	      7.92373002	    -20.33260257	      4.32689064	     48.40487510	     90.00000001	      0.00000000	      0.00000000	      3.93335602	    -13.43917775	      5.69712701	     42.78713295	     90.00000001	      0.00000000	      0.00000000
      0.03000000	     12.17808512	     -2.39940554	      7.07631423	     -2.56222616	      0.87110620	      0.17054914	    -29.03737459	      7.75875895	    -22.17080946	      1.54081364	      5.91613060	      0.02689227	     20.80664573	     36.98536200	     -9.37013239	     15.83504592	     -1.16395999	    -11.07037172	     19.97789019	     -5.13614191	      0.34867996	     16.62879855	     21.69119648	     -9.37013239	    -36.00231266	      6.03947785	      6.35649504	      8.29171156	    -20.56988018	      3.79459031	     48.71117533	     90.00000001	      0.00000000	      0.00000000	      3.26816007	    -13.22783635	      5.37449977	     42.33038835	     90.00000001	      0.00000000	      0.00000000
      0.04000000	     11.81703094	     -2.88760777	      7.17567366	     -2.55078827	      0.86852257	      0.16978466	    -29.30119660	      8.35387173	    -22.43290684	      1.80021757	      5.72647256	      0.03141972	     20.96149829	     37.11265535	     -9.34445035	     16.81493507	     -1.37246053	    -10.35937224	     18.02229813	     -4.43187322	      0.31454844	     15.96816057	     22.69589161	     -9.34445035	    -35.54356232	      6.48722270	      6.53807717	      8.59702837	    -20.72043426	      3.09422800	     49.00080726	     90.00000001	      0.00000000	      0.00000000	      2.63931803	    -12.97979682	      4.91860968	     41.73444872	     90.00000001	      0.00000000	      0.00000000
      0.05000000	     11.44527600	     -3.18870848	      7.18674643	     -2.53914642	      0.86609010	      0.16892742	    -29.47237747	      8.62727421	    -22.88410010	      2.35984664	      5.59375002	      0.04118709	     21.21015450	     37.41892232	     -9.27294484	     17.63528808	     -1.34132793	     -9.84363202	     16.16942176	     -3.93789034	      0.28220965	     15.31163660	     23.55060707	     -9.27294484	    -35.07601347	      6.71540637	      6.68342389	      8.79468950	    -20.64586315	      1.82547396	     49.24240325	     90.00000001	      0.00000000	      0.00000000	      2.10916646	    -12.54174616	      3.82760744	     40.92625828	     90.00000001	      0.00000000	      0.00000000
      0.06000000	     11.08856196	     -3.73384801	      7.13723267	     -2.52755022	      0.86375391	      0.16847753	    -29.55533082	      9.21741383	    -22.70508788	      2.92511407	      5.16939642	      0.05105287	     21.37529516	     37.41799802	     -9.23083884	     18.53100763	     -1.68950296	     -9.31648264	     14.85567140	     -3.43497539	      0.25928038	     15.09752854	     24.22428945	     -9.23083884	    -34.63020470	      7.12520567	      6.93497821	      9.00951509	    -20.75701082	      1.37857496	     49.47312768	     90.00000001	      0.00000000	      0.00000000	      1.53434430	    -12.31644521	      3.51494142	     40.31693945	     90.00000001	      0.00000000	      0.00000000
